# xmcd CD database file
#
# Track frame offsets:
#	182
#	16305
#	23667
#	36337
#	51380
#	67250
#	68977
#	82860
#	96040
#	113247
#	114787
#	127590
#	142622
#	156512
#	174310
#	179762
#	199457
#	215480
#
# Disc length: 2967 seconds
#
# Revision: 4
# Processed by: cddbd v1.5.2PL0 Copyright (c) Steve Scherf et al.
# Submitted via: CDex 1.50beta10
#
DISCID=f80b9512
DTITLE=Gianmaria Testa - Il valzer di un giorno
DYEAR=2001
DGENRE=Jazz
TTITLE0=Il viaggio
TTITLE1=Sono belle le cose
TTITLE2=Dentro la tasca di un qualunque mattino
TTITLE3=Un aeroplano a vela
TTITLE4=Le traiettorie delle mongolfiere
TTITLE5=Sappi che tutte le strade
TTITLE6=Come le onde del mare
TTITLE7=Lampo
TTITLE8=Città lunga
TTITLE9=Avrei voluto baciarti
TTITLE10=Gli amanti di Roma
TTITLE11=L'automobile
TTITLE12=Le donne nelle stazioni
TTITLE13=Piccoli fiumi
TTITLE14=Mi sento solo
TTITLE15=Polvere di gesso
TTITLE16=Il valzer di un giorno
TTITLE17=Plage du prophète
EXTD=YEAR: 2001
EXTT0=
EXTT1=
EXTT2=
EXTT3=
EXTT4=
EXTT5=
EXTT6=
EXTT7=
EXTT8=
EXTT9=
EXTT10=
EXTT11=
EXTT12=
EXTT13=
EXTT14=
EXTT15=
EXTT16=
EXTT17=
PLAYORDER=
